<?xml version="1.0" standalone="no"?>
<!DOCTYPE svg PUBLIC "-//W3C//DTD SVG 20010904//EN"
 "http://www.w3.org/TR/2001/REC-SVG-20010904/DTD/svg10.dtd">
<svg version="1.0" xmlns="http://www.w3.org/2000/svg"
 width="512.000000pt" height="512.000000pt" viewBox="0 0 759.000000 427.000000"
 preserveAspectRatio="xMidYMid meet">
<metadata>
Created by potrace 1.15, written by Peter Selinger 2001-2017
</metadata>
<g transform="translate(0.000000,427.000000) scale(0.100000,-0.100000)"
fill="#000000" stroke="none">
<path class="change-fill" d="M1125 4250 c-458 -105 -838 -445 -945 -845 -149 -561 210 -1144 831
-1349 169 -56 250 -65 674 -71 417 -7 454 -12 580 -70 184 -85 300 -226 357
-433 17 -62 21 -106 22 -227 0 -254 -46 -402 -165 -529 -75 -81 -138 -122
-236 -153 -77 -24 -81 -24 -455 -23 l-378 0 0 -275 0 -275 423 0 c388 0 428 2
493 19 256 72 480 232 621 446 145 222 213 485 213 825 0 409 -100 718 -291
894 -162 150 -406 263 -698 322 -117 24 -154 26 -521 33 l-395 8 -87 32 c-211
79 -339 224 -382 434 -29 140 -13 257 53 393 65 131 176 231 316 284 95 36
372 42 1571 34 584 -3 1305 -3 1603 1 l541 7 0 269 0 269 -1832 -1 c-1738 -1
-1837 -2 -1913 -19z"/>
<path class="change-fill" d="M5473 4228 c-148 -137 -117 -376 62 -463 100 -49 227 -33 313 39 56
48 85 109 90 192 7 108 -30 191 -109 250 -31 23 -41 24 -171 24 l-138 0 -47
-42z"/>
<path class="change-fill" d="M5377 3132 c-9 -204 -55 -390 -133 -531 -22 -39 -69 -97 -115 -143
-64 -64 -94 -85 -181 -126 -179 -87 -168 -85 -705 -90 l-473 -3 0 -1042 c0
-1174 -6 -1084 78 -1159 l42 -38 122 0 122 0 47 49 c28 29 52 66 58 88 7 25
11 286 11 776 l0 737 123 0 c453 0 783 83 1062 264 225 147 372 351 450 625
49 175 59 252 59 488 1 122 -1 223 -4 226 -3 2 -129 7 -281 10 l-276 6 -6
-137z"/>
<path class="change-fill" d="M362 523 c-59 -21 -135 -99 -156 -159 -9 -26 -16 -76 -16 -110 0 -87
46 -176 114 -221 48 -32 50 -33 164 -33 105 0 119 2 158 25 46 27 93 88 112
144 17 49 15 140 -5 196 -22 65 -93 136 -158 158 -59 21 -155 21 -213 0z"/>
</g>
</svg>